<?xml version="1.0" encoding="utf-8"?>
<!-- Generator: Adobe Illustrator 28.0.0, SVG Export Plug-In . SVG Version: 6.00 Build 0)  -->
<svg version="1.1" id="Слой_1" xmlns="http://www.w3.org/2000/svg" xmlns:xlink="http://www.w3.org/1999/xlink" x="0px" y="0px"
	 viewBox="0 0 740.2217407 1000" enable-background="new 0 0 740.2217407 1000" xml:space="preserve">
<path fill="#EE4D2D" d="M487.7876892,536.2734985c6.8455811-56.0922546-29.2889099-91.8712769-124.6664429-122.3101196
	c-46.1982117-15.762085-67.9602356-36.4011536-67.4512939-64.8552246
	c1.9281921-31.4998779,31.2790833-54.4737549,70.2034912-55.241272c26.978363,0.5386047,56.9459229,7.1283569,86.086731,26.5690308
	c3.4632263,2.1813049,5.9003601,1.8392944,7.8689575-1.1391296c2.6983643-4.341095,9.3930969-14.7602539,11.6444397-18.4954529
	c1.5242615-2.4398499,1.8204956-5.5906372-2.0385742-8.4021301c-5.5233459-4.0987244-21.0160522-12.395813-29.3320312-15.8751526
	c-22.5995483-9.4604492-47.9620972-15.4173584-75.007782-15.3634949
	c-56.978241,0.2396851-101.878418,36.2853088-105.6243591,84.3874817
	c-2.4506226,34.7098999,14.7333374,62.9054871,51.6299744,84.4009094
	c7.8177185,4.5565186,50.1461182,21.3904114,66.9799805,26.6309509
	c52.9602966,16.4891663,80.458374,46.0473938,73.9871521,80.5095825
	c-5.8734131,31.2682495-38.7709656,51.4602661-84.1154785,52.0742798
	c-35.954071-1.3707275-68.3076172-16.0259399-93.3955078-35.5393677c-0.6355591-0.473938-3.7863464-2.9165039-4.2145386-3.2450562
	c-3.1023254-2.4290771-6.4873962-2.2702026-8.5475159,0.8725586c-1.526947,2.3106079-11.2216949,16.3140869-13.669632,19.9900513
	c-2.2997894,3.2369385-1.0690918,5.0170288,1.3195648,7.00177c10.4838257,8.7387695,24.3904114,18.2961426,33.8750916,23.1327515
	c26.057373,13.2845459,54.3417969,20.5663452,84.4332581,21.7081299
	c19.3491211,1.3115234,43.7583618-2.8464355,61.9683228-10.5753174
	C462.4359436,598.6242676,483.5623779,570.8890991,487.7876892,536.2734985z M370.0906677,41.8355637
	c-61.7367554,0-112.0605774,58.1873779-114.4169617,131.0219421h228.8339539
	C482.1513062,100.0229416,431.8273926,41.8355637,370.0906677,41.8355637z M604.4748535,716.4343262l-2.3617554,0.0188599
	l-471.2243652-0.0700073h-0.0107727c-32.0519409-1.1983643-55.6209717-27.1776123-58.8363953-59.4315186l-0.3150787-5.8114624
	L50.6565628,187.6150513l0.0026932-0.0026855c-0.0296211-0.3500824-0.0403938-0.7028503-0.0403938-1.0610352
	c0-7.4784241,5.9945908-13.556488,13.4407005-13.6911469v-0.0026855h148.5344238C216.2349091,76.6855164,285.355835,0,370.0906677,0
	s153.8557434,76.6855164,157.4966736,172.8574982h148.1089478h0.210083c7.5672607,0,13.6965332,6.1292419,13.6965332,13.6938324
	c0,0.2369843-0.0053711,0.471283-0.0161743,0.7055664v0.0080719l-23.0869751,465.3510132l-0.210022,3.9398193
	C663.4997559,689.2109375,637.0842285,715.5510254,604.4748535,716.4343262z"/>
<path fill="#EE4D2D" d="M56.6532478,841.5388794c46.3335304,13.8669434,64.5605316,31.2123413,61.6464424,59.0582275
	c-1.7951431,17.1547852-12.0533447,31.0918579-28.1310959,38.2319336c-8.8626404,3.935791-20.7340851,6.1723633-30.205349,5.6977539
	c-14.5789223-0.2975464-28.3610439-3.5792236-41.1189651-9.7921753c-4.6096115-2.2427368-11.401722-6.6998901-16.6863403-10.9393921
	l-0.0184612-0.0172119c-2.4701896-2.0780029-2.7640336-3.4292603-1.0746268-5.9351196
	c0.437708-0.6799316,1.2369145-1.8922729,3.0862079-4.6809082c1.5873437-2.3927612,3.17101-4.7990112,3.2484956-4.9170532
	c1.9771347-2.9841309,4.0661259-2.9841309,6.948245-1.0032959c0.0196619,0.0147705,0.2803354,0.2078247,1.0217562,0.758667
	c0.5889645,0.4364624,0.951663,0.7057495,1.0180788,0.7537231c13.1181469,9.8155518,28.2675743,15.3473511,43.3678093,15.659668
	c20.665226-0.6381836,35.2367134-9.9151611,37.580265-23.6825562c2.5771713-15.1433105-9.9348297-28.125-34.3735733-35.2515259
	c-8.551609-2.4935303-27.2335434-9.4971313-32.4481049-12.237793C12.1825228,843.0093994,3.34446,829.1018677,4.2641535,811.7982788
	c1.4496713-23.9555054,23.4034424-42.1431885,51.4398727-42.7493286c12.3214188-0.2385254,24.6527023,2.0803833,36.532692,6.7994385
	c4.2825623,1.7017212,11.7841263,5.5822144,14.4903717,7.5114136c3.1439972,2.2205811,3.1439972,3.7525635,1.6119614,6.6223755
	c-0.2164001,0.3737793-1.0328293,1.5554199-3.1501465,4.5825806l-0.0073547,0.0098267
	c-2.2341309,3.194397-2.9042206,4.1596069-3.1009598,4.4866943c-1.8381805,2.3816528-3.3800888,3.1169434-6.5265198,1.2172241
	c-12.3718109-7.9269409-24.9158096-11.6672974-39.0963173-11.7029419
	c-17.4769516,0.649231-30.3135624,11.0095215-30.9295788,24.7498169
	C25.5330887,825.7058105,35.3449898,834.6975708,56.6532478,841.5388794z M186.6198273,834.59552
	c28.2663727,0,51.6083527,22.8206787,51.7140808,50.7833252v54.6256714c0,3.1525879-0.8090668,3.8952026-3.9038696,3.8952026
	h-12.9865875c-3.1255646,0-3.9038696-0.7426147-3.9038696-3.8952026v-54.4633789
	c-0.0700684-16.8621826-13.8903503-30.5041504-30.919754-30.5041504c-16.9875793,0-30.7893982,13.5780029-30.9209595,30.3848877
	v54.5826416c0,2.713623-1.0672607,3.8964233-3.9026337,3.8964233h-13.0173645c-3.0947876,0-3.9025879-1.1459351-3.9025879-3.8964233
	V772.8826904c0-2.8685303,0.8078003-3.8952637,3.9025879-3.8952637h13.0173645c2.7898865,0,3.9026337,1.0820312,3.9026337,3.8952637
	v71.921875C164.5910492,838.2288818,175.3767548,834.59552,186.6198273,834.59552z M310.8137512,924.2147217
	c19.5684204,0,35.4248962-15.5379639,35.4248962-34.6969604s-15.857666-34.6969604-35.4248962-34.6969604
	c-19.5697021,0-35.4260559,15.5379639-35.4260559,34.6969604S291.2440491,924.2147217,310.8137512,924.2147217z
	 M310.8248596,834.7089233c30.8951111,0,55.9449768,24.5457153,55.9449768,54.8358765
	c0,30.2890015-25.0498657,54.8359375-55.9449768,54.8359375c-30.8951721,0-55.9474487-24.546936-55.9474487-54.8359375
	C254.8774109,859.2546387,279.9284058,834.7089233,310.8248596,834.7089233z M656.4689941,876.8148193h61.9760132
	c-4.4571533-12.6472168-17.4229126-22.1000977-31.2628174-22.1000977
	C672.8307495,854.7147217,660.5351562,863.5490723,656.4689941,876.8148193z M733.8170166,896.921814
	c-0.0922241,0-0.1844482-0.0024414-0.2471924-0.0049438h-78.3746338
	c1.9882202,10.0651855,8.9008179,18.6364746,18.461853,23.4317627c2.4750977,1.1828003,5.1727905,2.1652832,8.0512085,2.9386597
	c14.0021973,2.9300537,30.0749512,0.7954712,42.3250732-10.0861206c0.1758423-0.1929932,0.5078735-0.4020386,0.8668823-0.7180176
	c2.052124-1.8111572,3.4968872-1.3525391,5.1063843,0.6565552c0,0,2.3004761,3.1968994,6.409668,9.7368774
	c1.7693481,2.7579346,1.6389771,4.083374-1.3267212,7.1400757c-0.1217041,0.1229248-0.354126,0.3405762-0.6958618,0.6418457
	c-0.5631714,0.4942627-1.2357178,1.0438843-2.0177612,1.6353149c-2.2279053,1.6783447-4.8936768,3.3566895-7.99823,4.9194336
	c-11.4755249,5.7801514-25.6191406,8.5011597-42.4297485,6.477356c-0.5581665-0.0848389-1.0032959-0.1549072-1.4348755-0.227478
	v0.02948l-0.956543-0.1782837c-12.2870483-2.2894287-23.3235474-8.4125977-31.4435425-17.3502808
	c-0.0442505-0.0455322-0.0467529-0.0479736-0.0578003-0.0627441c-7.2852173-8.0289917-11.9710083-18.0216675-13.4378662-28.984436
	h-0.0123291l-0.0860596-0.7131348c-0.2619019-2.2316284-0.3959351-4.4817505-0.3959351-6.7441406
	c0-30.2791138,23.7427979-54.8358765,53.0432129-54.8358765c29.3029175,0,53.0432739,24.555542,53.0432739,54.8358765
	c0,0.2336426-0.0012207,0.3406372-0.0025024,0.404541c0.0098267,0.1450806,0.0147705,0.295105,0.0147705,0.4611206
	c0,3.5263672-2.6976929,6.4354858-6.1182861,6.5904541C734.0038452,896.9193726,733.9104614,896.921814,733.8170166,896.921814z
	 M438.9545593,923.9308472c19.2131653,0,34.7891846-15.5343018,34.7891846-34.6969604
	c0-19.161499-15.5760193-34.6969604-34.7891846-34.6969604c-18.8860168,0-34.3108215,15.0289307-34.7793579,33.796875v1.7890625
	C404.6486206,908.9080811,420.0722046,923.9308472,438.9545593,923.9308472z M438.964386,834.4249878
	c30.362793,0,54.9785461,24.5506592,54.9785461,54.8359375c0,30.286499-24.6157532,54.8383789-54.9785461,54.8383789
	c-12.8709717,0-25.0559692-4.4301147-34.7891846-12.3755493v64.3822632c0,2.8894653-0.8078003,3.8939819-3.9038391,3.8939819
	h-12.3816528c-3.0960388,0-3.9038391-1.0278931-3.9038391-3.8939819V838.3190308c0-3.0271606,0.8078003-3.894043,3.9038391-3.894043
	h12.3816528c3.0960388,0,3.9038391,0.9455566,3.9038391,3.894043v8.4790649
	C413.9084167,838.8538818,426.0934143,834.4249878,438.964386,834.4249878z M533.663208,876.8148193h61.9758911
	c-4.4558716-12.6472168-17.4216309-22.1000977-31.2627563-22.1000977
	C550.026123,854.7147217,537.7305298,863.5490723,533.663208,876.8148193z M617.4035645,889.4595947
	c0,0.2336426,0,0.3406372-0.0024414,0.404541c0.0110474,0.1450806,0.0147095,0.295105,0.0147095,0.4611206
	c0,3.5263672-2.6975708,6.4354858-6.1170044,6.5904541c-0.0996094,0.0036621-0.1930542,0.0061035-0.2877197,0.0061035
	c-0.0922241,0-0.1845093-0.0024414-0.2471313-0.0049438h-78.3746338
	c1.9882202,10.0651855,8.9019775,18.6364746,18.461853,23.4317627c2.4763184,1.1828003,5.1740112,2.1652832,8.0523071,2.9386597
	c14.0022583,2.9300537,30.0739136,0.7954712,42.3240356-10.0861206c0.1757202-0.1929932,0.5077515-0.4020386,0.8667603-0.7180176
	c2.052124-1.8111572,3.4981689-1.3525391,5.107605,0.6565552c0,0,2.3005371,3.1968994,6.4085083,9.7368774
	c1.7692871,2.7579346,1.6389771,4.083374-1.3255005,7.1400757c-0.1217041,0.1229248-0.354126,0.3405762-0.6959839,0.6418457
	c-0.5630493,0.4942627-1.2368774,1.0438843-2.0188599,1.6353149c-2.2267456,1.6783447-4.8924561,3.3566895-7.998291,4.9194336
	c-11.4742432,5.7801514-25.6179199,8.5011597-42.4284668,6.477356c-0.5582275-0.0848389-1.0045166-0.1549072-1.4348755-0.227478
	v0.02948l-0.956604-0.1782837c-12.2869873-2.2894287-23.3247681-8.4125977-31.4447632-17.3502808
	c-0.0430298-0.0455322-0.0454712-0.0479736-0.0578003-0.0627441c-7.2839355-8.0289917-11.9710083-18.0216675-13.4365845-28.984436
	h-0.0135803l-0.0848083-0.7131348c-0.2631226-2.2316284-0.3971558-4.4817505-0.3971558-6.7441406
	c0-30.2791138,23.7440186-54.8358765,53.0444336-54.8358765
	C593.663208,834.6237183,617.4035645,859.1792603,617.4035645,889.4595947z"/>
</svg>
